<svg version="1.1" width="100" height="100" xmlns="http://www.w3.org/2000/svg">
    <g fill="rgba(0,0,0,0.2)">
        <path d="M0 5 L20 5 A20 20 0 0 1 40 25 L40 45 L20 45 A20 20 0 0 1 0 25 Z" />
        <g>
            <path d="M75 40 L95 40 A20 20 0 0 1 115 60 L115 80 L95 80 A20 20 0 0 1 75 60 Z" />
            <path d="M-25 40 L-5 40 A20 20 0 0 1 15 60 L15 80 L-5 80 A20 20 0 0 1 -25 60 Z" />
        </g>
        <path d="M70 55 L50 55 A20 20 0 0 0 30 75 L30 95 L50 95 A20 20 0 0 0 70 75 Z" />
        <g>
            <path
                d="M90 -5 L70 -5 A20 20 0 0 0 50 15.000000000000002 L50 35 L70 35 A20 20 0 0 0 90 14.999999999999998 Z" />
            <path d="M90 95 L70 95 A20 20 0 0 0 50 115 L50 135 L70 135 A20 20 0 0 0 90 115 Z" />
        </g>
    </g>
</svg>